<svg width="1711" height="786" viewBox="0 0 1711 786" fill="none" xmlns="http://www.w3.org/2000/svg">
<g clip-path="url(#clip0_2:2)">
<rect width="1711" height="786" fill="white"/>
<path d="M1021.69 487.531H836.766L801.609 593H689.461L880.008 81.125H977.742L1169.34 593H1057.2L1021.69 487.531ZM865.242 402.102H993.211L928.875 210.5L865.242 402.102ZM1377.47 387.688L1322.62 446.75V593H1217.16V81.125H1322.62V313.156L1369.03 249.523L1499.46 81.125H1629.19L1447.43 308.586L1634.46 593H1508.95L1377.47 387.688Z" fill="#280B45"/>
<path d="M763.455 734.6H729.955L722.855 753H714.055L740.855 683.4H753.055L779.855 753H770.555L763.455 734.6ZM760.555 727.1L746.755 691.1L732.855 727.1H760.555ZM865.025 700.8L848.625 753H837.225L824.925 712.9L812.825 753H801.425L785.025 700.8H794.025L807.625 744.5L820.625 700.8H829.625L842.825 744.5L856.425 700.8H865.025ZM892.061 754.2C888.861 754.2 885.694 753.733 882.561 752.8C879.494 751.8 876.594 750.4 873.861 748.6V739.4C879.927 744.067 885.927 746.4 891.861 746.4C895.327 746.4 898.127 745.7 900.261 744.3C902.394 742.833 903.461 740.9 903.461 738.5C903.461 736.833 902.927 735.467 901.861 734.4C900.861 733.333 899.594 732.5 898.061 731.9C896.527 731.3 894.327 730.567 891.461 729.7C887.927 728.7 884.994 727.733 882.661 726.8C880.394 725.8 878.461 724.367 876.861 722.5C875.261 720.567 874.461 718.067 874.461 715C874.461 710.333 876.227 706.6 879.761 703.8C883.294 701 887.927 699.6 893.661 699.6C899.394 699.6 904.594 701.1 909.261 704.1V713C906.661 711 904.127 709.567 901.661 708.7C899.261 707.833 896.727 707.4 894.061 707.4C890.727 707.4 888.094 708 886.161 709.2C884.227 710.4 883.261 712.067 883.261 714.2C883.261 715.733 883.761 717 884.761 718C885.827 719 887.127 719.8 888.661 720.4C890.194 721 892.394 721.733 895.261 722.6C898.861 723.667 901.794 724.7 904.061 725.7C906.327 726.633 908.261 728.1 909.861 730.1C911.461 732.033 912.261 734.567 912.261 737.7C912.261 740.9 911.394 743.767 909.661 746.3C907.927 748.767 905.527 750.7 902.461 752.1C899.394 753.5 895.927 754.2 892.061 754.2ZM950.061 754.2C942.461 754.2 936.527 751.733 932.261 746.8C927.994 741.8 925.861 735.167 925.861 726.9C925.861 718.633 927.994 712.033 932.261 707.1C936.527 702.1 942.461 699.6 950.061 699.6C957.661 699.6 963.594 702.1 967.861 707.1C972.127 712.033 974.261 718.633 974.261 726.9C974.261 735.167 972.127 741.8 967.861 746.8C963.594 751.733 957.661 754.2 950.061 754.2ZM950.061 746.6C954.927 746.6 958.594 744.8 961.061 741.2C963.527 737.6 964.761 732.833 964.761 726.9C964.761 720.967 963.527 716.2 961.061 712.6C958.594 709 954.927 707.2 950.061 707.2C945.194 707.2 941.527 709 939.061 712.6C936.661 716.2 935.461 720.967 935.461 726.9C935.461 732.833 936.661 737.6 939.061 741.2C941.527 744.8 945.194 746.6 950.061 746.6ZM1049.93 699.6C1054.86 699.6 1058.59 701.133 1061.13 704.2C1063.66 707.2 1064.93 711.4 1064.93 716.8V753H1056.13V718C1056.13 714.667 1055.43 712.1 1054.03 710.3C1052.63 708.433 1050.49 707.5 1047.63 707.5C1044.69 707.5 1042.23 708.033 1040.23 709.1C1038.23 710.167 1035.93 711.9 1033.33 714.3C1033.39 714.833 1033.43 715.667 1033.43 716.8V753H1024.63V718C1024.63 714.667 1023.93 712.1 1022.53 710.3C1021.13 708.433 1018.99 707.5 1016.13 707.5C1013.19 707.5 1010.73 708.033 1008.73 709.1C1006.73 710.1 1004.46 711.8 1001.93 714.2V753H993.125V712.4L990.925 700.8H999.725L1001.13 708C1004.13 705 1006.83 702.867 1009.23 701.6C1011.69 700.267 1014.76 699.6 1018.43 699.6C1021.89 699.6 1024.76 700.367 1027.03 701.9C1029.36 703.433 1031.06 705.633 1032.13 708.5C1035.33 705.3 1038.16 703.033 1040.63 701.7C1043.09 700.3 1046.19 699.6 1049.93 699.6ZM1129.27 729.8H1092.27C1092.8 734.933 1094.5 739.033 1097.37 742.1C1100.3 745.1 1104.27 746.6 1109.27 746.6C1112.27 746.6 1115.17 746 1117.97 744.8C1120.84 743.533 1123.74 741.7 1126.67 739.3H1127.07V748.1C1124.14 750.233 1121.24 751.8 1118.37 752.8C1115.5 753.733 1112.44 754.2 1109.17 754.2C1103.84 754.2 1099.2 753.033 1095.27 750.7C1091.34 748.367 1088.3 745.133 1086.17 741C1084.1 736.8 1083.07 732 1083.07 726.6C1083.07 721.467 1084 716.867 1085.87 712.8C1087.8 708.667 1090.54 705.433 1094.07 703.1C1097.6 700.767 1101.74 699.6 1106.47 699.6C1111.27 699.6 1115.37 700.8 1118.77 703.2C1122.24 705.533 1124.84 708.767 1126.57 712.9C1128.37 717.033 1129.27 721.7 1129.27 726.9V729.8ZM1106.57 706.9C1102.44 706.9 1099.14 708.4 1096.67 711.4C1094.2 714.4 1092.74 718.267 1092.27 723H1120.17C1119.7 718.133 1118.34 714.233 1116.07 711.3C1113.87 708.367 1110.7 706.9 1106.57 706.9ZM1247.06 700.8L1230.66 753H1219.26L1206.96 712.9L1194.86 753H1183.46L1167.06 700.8H1176.06L1189.66 744.5L1202.66 700.8H1211.66L1224.86 744.5L1238.46 700.8H1247.06ZM1303.29 729.8H1266.29C1266.83 734.933 1268.53 739.033 1271.39 742.1C1274.33 745.1 1278.29 746.6 1283.29 746.6C1286.29 746.6 1289.19 746 1291.99 744.8C1294.86 743.533 1297.76 741.7 1300.69 739.3H1301.09V748.1C1298.16 750.233 1295.26 751.8 1292.39 752.8C1289.53 753.733 1286.46 754.2 1283.19 754.2C1277.86 754.2 1273.23 753.033 1269.29 750.7C1265.36 748.367 1262.33 745.133 1260.19 741C1258.13 736.8 1257.09 732 1257.09 726.6C1257.09 721.467 1258.03 716.867 1259.89 712.8C1261.83 708.667 1264.56 705.433 1268.09 703.1C1271.63 700.767 1275.76 699.6 1280.49 699.6C1285.29 699.6 1289.39 700.8 1292.79 703.2C1296.26 705.533 1298.86 708.767 1300.59 712.9C1302.39 717.033 1303.29 721.7 1303.29 726.9V729.8ZM1280.59 706.9C1276.46 706.9 1273.16 708.4 1270.69 711.4C1268.23 714.4 1266.76 718.267 1266.29 723H1294.19C1293.73 718.133 1292.36 714.233 1290.09 711.3C1287.89 708.367 1284.73 706.9 1280.59 706.9ZM1345.15 699.6C1349.69 699.6 1353.55 700.8 1356.75 703.2C1359.95 705.6 1362.35 708.867 1363.95 713C1365.62 717.133 1366.45 721.8 1366.45 727C1366.45 732.2 1365.49 736.867 1363.55 741C1361.69 745.067 1358.95 748.267 1355.35 750.6C1351.82 752.933 1347.62 754.1 1342.75 754.1C1340.29 754.1 1337.99 753.833 1335.85 753.3C1333.72 752.767 1331.45 752 1329.05 751V753H1320.25V677.6H1329.05V706.4C1333.39 701.867 1338.75 699.6 1345.15 699.6ZM1341.85 746.3C1346.65 746.3 1350.35 744.5 1352.95 740.9C1355.62 737.3 1356.95 732.667 1356.95 727C1356.95 721.333 1355.92 716.7 1353.85 713.1C1351.85 709.5 1348.69 707.7 1344.35 707.7C1341.29 707.7 1338.52 708.333 1336.05 709.6C1333.65 710.867 1331.32 712.733 1329.05 715.2V744.3C1333.39 745.633 1337.65 746.3 1341.85 746.3ZM1398.02 754.2C1394.82 754.2 1391.65 753.733 1388.52 752.8C1385.45 751.8 1382.55 750.4 1379.82 748.6V739.4C1385.88 744.067 1391.88 746.4 1397.82 746.4C1401.28 746.4 1404.08 745.7 1406.22 744.3C1408.35 742.833 1409.42 740.9 1409.42 738.5C1409.42 736.833 1408.88 735.467 1407.82 734.4C1406.82 733.333 1405.55 732.5 1404.02 731.9C1402.48 731.3 1400.28 730.567 1397.42 729.7C1393.88 728.7 1390.95 727.733 1388.62 726.8C1386.35 725.8 1384.42 724.367 1382.82 722.5C1381.22 720.567 1380.42 718.067 1380.42 715C1380.42 710.333 1382.18 706.6 1385.72 703.8C1389.25 701 1393.88 699.6 1399.62 699.6C1405.35 699.6 1410.55 701.1 1415.22 704.1V713C1412.62 711 1410.08 709.567 1407.62 708.7C1405.22 707.833 1402.68 707.4 1400.02 707.4C1396.68 707.4 1394.05 708 1392.12 709.2C1390.18 710.4 1389.22 712.067 1389.22 714.2C1389.22 715.733 1389.72 717 1390.72 718C1391.78 719 1393.08 719.8 1394.62 720.4C1396.15 721 1398.35 721.733 1401.22 722.6C1404.82 723.667 1407.75 724.7 1410.02 725.7C1412.28 726.633 1414.22 728.1 1415.82 730.1C1417.42 732.033 1418.22 734.567 1418.22 737.7C1418.22 740.9 1417.35 743.767 1415.62 746.3C1413.88 748.767 1411.48 750.7 1408.42 752.1C1405.35 753.5 1401.88 754.2 1398.02 754.2ZM1438.02 689C1436.15 689 1434.62 688.4 1433.42 687.2C1432.28 686 1431.72 684.467 1431.72 682.6C1431.72 680.733 1432.28 679.2 1433.42 678C1434.62 676.8 1436.15 676.2 1438.02 676.2C1439.88 676.2 1441.38 676.8 1442.52 678C1443.72 679.2 1444.32 680.733 1444.32 682.6C1444.32 684.467 1443.72 686 1442.52 687.2C1441.38 688.4 1439.88 689 1438.02 689ZM1442.42 700.8V753H1433.62V700.8H1442.42ZM1473.34 700.8H1487.74V708.4H1473.34V738.3C1473.34 740.767 1473.88 742.767 1474.94 744.3C1476.08 745.767 1477.71 746.5 1479.84 746.5C1481.31 746.5 1482.61 746.367 1483.74 746.1C1484.94 745.767 1486.28 745.267 1487.74 744.6V752.4C1486.21 753.133 1484.74 753.6 1483.34 753.8C1481.94 754.067 1480.24 754.2 1478.24 754.2C1473.98 754.2 1470.61 752.833 1468.14 750.1C1465.74 747.367 1464.54 743.733 1464.54 739.2V708.4H1454.54V700.8H1464.54V686.8L1473.34 682.2V700.8ZM1545.28 729.8H1508.28C1508.82 734.933 1510.52 739.033 1513.38 742.1C1516.32 745.1 1520.28 746.6 1525.28 746.6C1528.28 746.6 1531.18 746 1533.98 744.8C1536.85 743.533 1539.75 741.7 1542.68 739.3H1543.08V748.1C1540.15 750.233 1537.25 751.8 1534.38 752.8C1531.52 753.733 1528.45 754.2 1525.18 754.2C1519.85 754.2 1515.22 753.033 1511.28 750.7C1507.35 748.367 1504.32 745.133 1502.18 741C1500.12 736.8 1499.08 732 1499.08 726.6C1499.08 721.467 1500.02 716.867 1501.88 712.8C1503.82 708.667 1506.55 705.433 1510.08 703.1C1513.62 700.767 1517.75 699.6 1522.48 699.6C1527.28 699.6 1531.38 700.8 1534.78 703.2C1538.25 705.533 1540.85 708.767 1542.58 712.9C1544.38 717.033 1545.28 721.7 1545.28 726.9V729.8ZM1522.58 706.9C1518.45 706.9 1515.15 708.4 1512.68 711.4C1510.22 714.4 1508.75 718.267 1508.28 723H1536.18C1535.72 718.133 1534.35 714.233 1532.08 711.3C1529.88 708.367 1526.72 706.9 1522.58 706.9ZM1576.04 754.2C1572.84 754.2 1569.68 753.733 1566.54 752.8C1563.48 751.8 1560.58 750.4 1557.84 748.6V739.4C1563.91 744.067 1569.91 746.4 1575.84 746.4C1579.31 746.4 1582.11 745.7 1584.24 744.3C1586.38 742.833 1587.44 740.9 1587.44 738.5C1587.44 736.833 1586.91 735.467 1585.84 734.4C1584.84 733.333 1583.58 732.5 1582.04 731.9C1580.51 731.3 1578.31 730.567 1575.44 729.7C1571.91 728.7 1568.98 727.733 1566.64 726.8C1564.38 725.8 1562.44 724.367 1560.84 722.5C1559.24 720.567 1558.44 718.067 1558.44 715C1558.44 710.333 1560.21 706.6 1563.74 703.8C1567.28 701 1571.91 699.6 1577.64 699.6C1583.38 699.6 1588.58 701.1 1593.24 704.1V713C1590.64 711 1588.11 709.567 1585.64 708.7C1583.24 707.833 1580.71 707.4 1578.04 707.4C1574.71 707.4 1572.08 708 1570.14 709.2C1568.21 710.4 1567.24 712.067 1567.24 714.2C1567.24 715.733 1567.74 717 1568.74 718C1569.81 719 1571.11 719.8 1572.64 720.4C1574.18 721 1576.38 721.733 1579.24 722.6C1582.84 723.667 1585.78 724.7 1588.04 725.7C1590.31 726.633 1592.24 728.1 1593.84 730.1C1595.44 732.033 1596.24 734.567 1596.24 737.7C1596.24 740.9 1595.38 743.767 1593.64 746.3C1591.91 748.767 1589.51 750.7 1586.44 752.1C1583.38 753.5 1579.91 754.2 1576.04 754.2Z" fill="#280B45"/>
<rect x="49" y="86" width="600" height="600" rx="57" fill="#280B45"/>
<path d="M421.441 471H272.941L243.941 550H177.941L309.941 202H386.941L518.941 550H450.441L421.441 471ZM400.941 415L347.441 267L293.441 415H400.941Z" fill="white"/>
<line x1="324.054" y1="376.242" x2="277.054" y2="502.242" stroke="#280B45" stroke-width="30"/>
</g>
<defs>
<clipPath id="clip0_2:2">
<rect width="1711" height="786" fill="white"/>
</clipPath>
</defs>
</svg>
