<svg width="375" height="190" viewBox="0 0 375 190" fill="none" xmlns="http://www.w3.org/2000/svg">
<circle cx="100.5" cy="94.5" r="87.5" fill="#0072BB"/>
<circle cx="248" cy="59" r="45" fill="#0072BB"/>
<circle cx="333" cy="146" r="20" fill="#0072BB"/>
<path d="M91.648 111C89.344 111 87.3813 110.189 85.76 108.568C84.1387 106.947 83.328 104.984 83.328 102.68V99.992H90.24V101.72C90.24 102.659 90.3893 103.299 90.688 103.64C91.0293 103.939 91.6693 104.088 92.608 104.088H120.128C121.067 104.088 121.685 103.939 121.984 103.64C122.283 103.299 122.432 102.659 122.432 101.72V93.784C122.432 92.8027 122.283 92.1627 121.984 91.864C121.685 91.5653 121.067 91.416 120.128 91.416H91.648C89.344 91.416 87.3813 90.6053 85.76 88.984C84.1387 87.3627 83.328 85.4 83.328 83.096V73.24C83.328 70.936 84.1387 68.9733 85.76 67.352C87.3813 65.7307 89.344 64.92 91.648 64.92H121.088C123.392 64.92 125.355 65.7307 126.976 67.352C128.597 68.9733 129.408 70.936 129.408 73.24V75.928H122.432V74.2C122.432 73.2613 122.283 72.6427 121.984 72.344C121.685 72.0027 121.067 71.832 120.128 71.832H92.608C91.6693 71.832 91.0293 72.0027 90.688 72.344C90.3893 72.6427 90.24 73.2613 90.24 74.2V82.136C90.24 83.1173 90.3893 83.7573 90.688 84.056C91.0293 84.312 91.6693 84.44 92.608 84.44H121.088C123.392 84.44 125.355 85.272 126.976 86.936C128.597 88.5573 129.408 90.52 129.408 92.824V102.68C129.408 104.984 128.597 106.947 126.976 108.568C125.355 110.189 123.392 111 121.088 111H91.648ZM144.462 111C142.158 111 140.195 110.189 138.574 108.568C136.953 106.947 136.142 104.984 136.142 102.68V62.168H143.054V73.88H158.286V80.792H143.054V101.72C143.054 102.659 143.203 103.299 143.502 103.64C143.843 103.939 144.483 104.088 145.422 104.088H158.286V111H144.462ZM171.65 111C169.346 111 167.383 110.189 165.762 108.568C164.14 106.947 163.33 104.984 163.33 102.68V73.88H170.242V101.72C170.242 102.659 170.391 103.299 170.69 103.64C171.031 103.939 171.671 104.088 172.61 104.088H191.81C192.748 104.088 193.367 103.939 193.666 103.64C194.007 103.299 194.178 102.659 194.178 101.72V73.88H201.09V102.68C201.09 104.984 200.279 106.947 198.658 108.568C197.036 110.189 195.074 111 192.77 111H171.65ZM214.605 111C212.301 111 210.338 110.189 208.717 108.568C207.095 106.947 206.285 104.984 206.285 102.68V82.2C206.285 79.896 207.095 77.9333 208.717 76.312C210.338 74.6907 212.301 73.88 214.605 73.88H237.132V61.72H244.045V111H214.605ZM215.629 104.088H234.829C235.767 104.088 236.386 103.939 236.685 103.64C236.983 103.299 237.132 102.659 237.132 101.72V83.16C237.132 82.2213 236.983 81.6027 236.685 81.304C236.386 80.9627 235.767 80.792 234.829 80.792H215.629C214.69 80.792 214.05 80.9627 213.709 81.304C213.41 81.6027 213.26 82.2213 213.26 83.16V101.72C213.26 102.659 213.41 103.299 213.709 103.64C214.05 103.939 214.69 104.088 215.629 104.088ZM256.279 125.208V118.232H278.231C279.169 118.232 279.788 118.061 280.087 117.72C280.428 117.421 280.599 116.803 280.599 115.864V111H258.071C255.767 111 253.804 110.189 252.183 108.568C250.561 106.947 249.751 104.984 249.751 102.68V74.008H256.663V101.72C256.663 102.659 256.812 103.299 257.111 103.64C257.452 103.939 258.092 104.088 259.031 104.088H278.231C279.169 104.088 279.788 103.939 280.087 103.64C280.428 103.299 280.599 102.659 280.599 101.72V74.008H287.511V116.888C287.511 119.192 286.7 121.155 285.079 122.776C283.457 124.397 281.495 125.208 279.191 125.208H256.279ZM294.331 111V61.72H301.243V73.88H323.771C326.075 73.88 328.038 74.6907 329.659 76.312C331.28 77.9333 332.091 79.896 332.091 82.2V102.68C332.091 104.984 331.28 106.947 329.659 108.568C328.038 110.189 326.075 111 323.771 111H294.331ZM303.611 104.088H322.811C323.75 104.088 324.368 103.939 324.667 103.64C325.008 103.299 325.179 102.659 325.179 101.72V83.16C325.179 82.2213 325.008 81.6027 324.667 81.304C324.368 80.9627 323.75 80.792 322.811 80.792H303.611C302.672 80.792 302.032 80.9627 301.691 81.304C301.392 81.6027 301.243 82.2213 301.243 83.16V101.72C301.243 102.659 301.392 103.299 301.691 103.64C302.032 103.939 302.672 104.088 303.611 104.088ZM336.891 111V73.88H343.803V111H336.891ZM336.891 68.632V61.72H343.803V68.632H336.891ZM359.525 111C357.221 111 355.258 110.189 353.637 108.568C352.015 106.947 351.205 104.984 351.205 102.68V62.168H358.117V73.88H373.349V80.792H358.117V101.72C358.117 102.659 358.266 103.299 358.565 103.64C358.906 103.939 359.546 104.088 360.485 104.088H373.349V111H359.525Z" fill="black"/>
<path d="M68 79.0718C73.3333 82.151 73.3333 89.849 68 92.9282L32 113.713C26.6667 116.792 20 112.943 20 106.785L20 65.2154C20 59.057 26.6667 55.208 32 58.2872L68 79.0718Z" fill="black"/>
</svg>
