<svg width="500" height="500" viewBox="0 0 500 500" fill="none" xmlns="http://www.w3.org/2000/svg">
<circle cx="162.5" cy="258.5" r="87.5" fill="#0072BB"/>
<circle cx="310" cy="223" r="45" fill="#0072BB"/>
<circle cx="395" cy="310" r="20" fill="#0072BB"/>
<path d="M153.648 275C151.344 275 149.381 274.189 147.76 272.568C146.139 270.947 145.328 268.984 145.328 266.68V263.992H152.24V265.72C152.24 266.659 152.389 267.299 152.688 267.64C153.029 267.939 153.669 268.088 154.608 268.088H182.128C183.067 268.088 183.685 267.939 183.984 267.64C184.283 267.299 184.432 266.659 184.432 265.72V257.784C184.432 256.803 184.283 256.163 183.984 255.864C183.685 255.565 183.067 255.416 182.128 255.416H153.648C151.344 255.416 149.381 254.605 147.76 252.984C146.139 251.363 145.328 249.4 145.328 247.096V237.24C145.328 234.936 146.139 232.973 147.76 231.352C149.381 229.731 151.344 228.92 153.648 228.92H183.088C185.392 228.92 187.355 229.731 188.976 231.352C190.597 232.973 191.408 234.936 191.408 237.24V239.928H184.432V238.2C184.432 237.261 184.283 236.643 183.984 236.344C183.685 236.003 183.067 235.832 182.128 235.832H154.608C153.669 235.832 153.029 236.003 152.688 236.344C152.389 236.643 152.24 237.261 152.24 238.2V246.136C152.24 247.117 152.389 247.757 152.688 248.056C153.029 248.312 153.669 248.44 154.608 248.44H183.088C185.392 248.44 187.355 249.272 188.976 250.936C190.597 252.557 191.408 254.52 191.408 256.824V266.68C191.408 268.984 190.597 270.947 188.976 272.568C187.355 274.189 185.392 275 183.088 275H153.648ZM206.462 275C204.158 275 202.195 274.189 200.574 272.568C198.953 270.947 198.142 268.984 198.142 266.68V226.168H205.054V237.88H220.286V244.792H205.054V265.72C205.054 266.659 205.203 267.299 205.502 267.64C205.843 267.939 206.483 268.088 207.422 268.088H220.286V275H206.462ZM233.65 275C231.346 275 229.383 274.189 227.762 272.568C226.14 270.947 225.33 268.984 225.33 266.68V237.88H232.242V265.72C232.242 266.659 232.391 267.299 232.69 267.64C233.031 267.939 233.671 268.088 234.61 268.088H253.81C254.748 268.088 255.367 267.939 255.666 267.64C256.007 267.299 256.178 266.659 256.178 265.72V237.88H263.09V266.68C263.09 268.984 262.279 270.947 260.658 272.568C259.036 274.189 257.074 275 254.77 275H233.65ZM276.605 275C274.301 275 272.338 274.189 270.717 272.568C269.095 270.947 268.285 268.984 268.285 266.68V246.2C268.285 243.896 269.095 241.933 270.717 240.312C272.338 238.691 274.301 237.88 276.605 237.88H299.132V225.72H306.045V275H276.605ZM277.629 268.088H296.829C297.767 268.088 298.386 267.939 298.685 267.64C298.983 267.299 299.132 266.659 299.132 265.72V247.16C299.132 246.221 298.983 245.603 298.685 245.304C298.386 244.963 297.767 244.792 296.829 244.792H277.629C276.69 244.792 276.05 244.963 275.709 245.304C275.41 245.603 275.26 246.221 275.26 247.16V265.72C275.26 266.659 275.41 267.299 275.709 267.64C276.05 267.939 276.69 268.088 277.629 268.088ZM318.279 289.208V282.232H340.231C341.169 282.232 341.788 282.061 342.087 281.72C342.428 281.421 342.599 280.803 342.599 279.864V275H320.071C317.767 275 315.804 274.189 314.183 272.568C312.561 270.947 311.751 268.984 311.751 266.68V238.008H318.663V265.72C318.663 266.659 318.812 267.299 319.111 267.64C319.452 267.939 320.092 268.088 321.031 268.088H340.231C341.169 268.088 341.788 267.939 342.087 267.64C342.428 267.299 342.599 266.659 342.599 265.72V238.008H349.511V280.888C349.511 283.192 348.7 285.155 347.079 286.776C345.457 288.397 343.495 289.208 341.191 289.208H318.279ZM356.331 275V225.72H363.243V237.88H385.771C388.075 237.88 390.038 238.691 391.659 240.312C393.28 241.933 394.091 243.896 394.091 246.2V266.68C394.091 268.984 393.28 270.947 391.659 272.568C390.038 274.189 388.075 275 385.771 275H356.331ZM365.611 268.088H384.811C385.75 268.088 386.368 267.939 386.667 267.64C387.008 267.299 387.179 266.659 387.179 265.72V247.16C387.179 246.221 387.008 245.603 386.667 245.304C386.368 244.963 385.75 244.792 384.811 244.792H365.611C364.672 244.792 364.032 244.963 363.691 245.304C363.392 245.603 363.243 246.221 363.243 247.16V265.72C363.243 266.659 363.392 267.299 363.691 267.64C364.032 267.939 364.672 268.088 365.611 268.088ZM398.891 275V237.88H405.803V275H398.891ZM398.891 232.632V225.72H405.803V232.632H398.891ZM421.525 275C419.221 275 417.258 274.189 415.637 272.568C414.015 270.947 413.205 268.984 413.205 266.68V226.168H420.117V237.88H435.349V244.792H420.117V265.72C420.117 266.659 420.266 267.299 420.565 267.64C420.906 267.939 421.546 268.088 422.485 268.088H435.349V275H421.525Z" fill="black"/>
<path d="M130 243.072C135.333 246.151 135.333 253.849 130 256.928L94 277.713C88.6667 280.792 82 276.943 82 270.785V229.215C82 223.057 88.6667 219.208 94 222.287L130 243.072Z" fill="black"/>
</svg>
