<svg width="1800" height="1800" viewBox="0 0 1800 1800" fill="none" xmlns="http://www.w3.org/2000/svg">
<path d="M1048.69 1031.53H863.766L828.609 1137H716.461L907.008 625.125H1004.74L1196.34 1137H1084.2L1048.69 1031.53ZM892.242 946.102H1020.21L955.875 754.5L892.242 946.102ZM1404.47 931.688L1349.62 990.75V1137H1244.16V625.125H1349.62V857.156L1396.03 793.523L1526.46 625.125H1656.19L1474.43 852.586L1661.46 1137H1535.95L1404.47 931.688Z" fill="#280B45"/>
<path d="M790.455 1278.6H756.955L749.855 1297H741.055L767.855 1227.4H780.055L806.855 1297H797.555L790.455 1278.6ZM787.555 1271.1L773.755 1235.1L759.855 1271.1H787.555ZM892.025 1244.8L875.625 1297H864.225L851.925 1256.9L839.825 1297H828.425L812.025 1244.8H821.025L834.625 1288.5L847.625 1244.8H856.625L869.825 1288.5L883.425 1244.8H892.025ZM919.061 1298.2C915.861 1298.2 912.694 1297.73 909.561 1296.8C906.494 1295.8 903.594 1294.4 900.861 1292.6V1283.4C906.927 1288.07 912.927 1290.4 918.861 1290.4C922.327 1290.4 925.127 1289.7 927.261 1288.3C929.394 1286.83 930.461 1284.9 930.461 1282.5C930.461 1280.83 929.927 1279.47 928.861 1278.4C927.861 1277.33 926.594 1276.5 925.061 1275.9C923.527 1275.3 921.327 1274.57 918.461 1273.7C914.927 1272.7 911.994 1271.73 909.661 1270.8C907.394 1269.8 905.461 1268.37 903.861 1266.5C902.261 1264.57 901.461 1262.07 901.461 1259C901.461 1254.33 903.227 1250.6 906.761 1247.8C910.294 1245 914.927 1243.6 920.661 1243.6C926.394 1243.6 931.594 1245.1 936.261 1248.1V1257C933.661 1255 931.127 1253.57 928.661 1252.7C926.261 1251.83 923.727 1251.4 921.061 1251.4C917.727 1251.4 915.094 1252 913.161 1253.2C911.227 1254.4 910.261 1256.07 910.261 1258.2C910.261 1259.73 910.761 1261 911.761 1262C912.827 1263 914.127 1263.8 915.661 1264.4C917.194 1265 919.394 1265.73 922.261 1266.6C925.861 1267.67 928.794 1268.7 931.061 1269.7C933.327 1270.63 935.261 1272.1 936.861 1274.1C938.461 1276.03 939.261 1278.57 939.261 1281.7C939.261 1284.9 938.394 1287.77 936.661 1290.3C934.927 1292.77 932.527 1294.7 929.461 1296.1C926.394 1297.5 922.927 1298.2 919.061 1298.2ZM977.061 1298.2C969.461 1298.2 963.527 1295.73 959.261 1290.8C954.994 1285.8 952.861 1279.17 952.861 1270.9C952.861 1262.63 954.994 1256.03 959.261 1251.1C963.527 1246.1 969.461 1243.6 977.061 1243.6C984.661 1243.6 990.594 1246.1 994.861 1251.1C999.127 1256.03 1001.26 1262.63 1001.26 1270.9C1001.26 1279.17 999.127 1285.8 994.861 1290.8C990.594 1295.73 984.661 1298.2 977.061 1298.2ZM977.061 1290.6C981.927 1290.6 985.594 1288.8 988.061 1285.2C990.527 1281.6 991.761 1276.83 991.761 1270.9C991.761 1264.97 990.527 1260.2 988.061 1256.6C985.594 1253 981.927 1251.2 977.061 1251.2C972.194 1251.2 968.527 1253 966.061 1256.6C963.661 1260.2 962.461 1264.97 962.461 1270.9C962.461 1276.83 963.661 1281.6 966.061 1285.2C968.527 1288.8 972.194 1290.6 977.061 1290.6ZM1076.93 1243.6C1081.86 1243.6 1085.59 1245.13 1088.13 1248.2C1090.66 1251.2 1091.93 1255.4 1091.93 1260.8V1297H1083.13V1262C1083.13 1258.67 1082.43 1256.1 1081.03 1254.3C1079.63 1252.43 1077.49 1251.5 1074.63 1251.5C1071.69 1251.5 1069.23 1252.03 1067.23 1253.1C1065.23 1254.17 1062.93 1255.9 1060.33 1258.3C1060.39 1258.83 1060.43 1259.67 1060.43 1260.8V1297H1051.63V1262C1051.63 1258.67 1050.93 1256.1 1049.53 1254.3C1048.13 1252.43 1045.99 1251.5 1043.13 1251.5C1040.19 1251.5 1037.73 1252.03 1035.73 1253.1C1033.73 1254.1 1031.46 1255.8 1028.93 1258.2V1297H1020.13V1256.4L1017.93 1244.8H1026.73L1028.13 1252C1031.13 1249 1033.83 1246.87 1036.23 1245.6C1038.69 1244.27 1041.76 1243.6 1045.43 1243.6C1048.89 1243.6 1051.76 1244.37 1054.03 1245.9C1056.36 1247.43 1058.06 1249.63 1059.13 1252.5C1062.33 1249.3 1065.16 1247.03 1067.63 1245.7C1070.09 1244.3 1073.19 1243.6 1076.93 1243.6ZM1156.27 1273.8H1119.27C1119.8 1278.93 1121.5 1283.03 1124.37 1286.1C1127.3 1289.1 1131.27 1290.6 1136.27 1290.6C1139.27 1290.6 1142.17 1290 1144.97 1288.8C1147.84 1287.53 1150.74 1285.7 1153.67 1283.3H1154.07V1292.1C1151.14 1294.23 1148.24 1295.8 1145.37 1296.8C1142.5 1297.73 1139.44 1298.2 1136.17 1298.2C1130.84 1298.2 1126.2 1297.03 1122.27 1294.7C1118.34 1292.37 1115.3 1289.13 1113.17 1285C1111.1 1280.8 1110.07 1276 1110.07 1270.6C1110.07 1265.47 1111 1260.87 1112.87 1256.8C1114.8 1252.67 1117.54 1249.43 1121.07 1247.1C1124.6 1244.77 1128.74 1243.6 1133.47 1243.6C1138.27 1243.6 1142.37 1244.8 1145.77 1247.2C1149.24 1249.53 1151.84 1252.77 1153.57 1256.9C1155.37 1261.03 1156.27 1265.7 1156.27 1270.9V1273.8ZM1133.57 1250.9C1129.44 1250.9 1126.14 1252.4 1123.67 1255.4C1121.2 1258.4 1119.74 1262.27 1119.27 1267H1147.17C1146.7 1262.13 1145.34 1258.23 1143.07 1255.3C1140.87 1252.37 1137.7 1250.9 1133.57 1250.9ZM1274.06 1244.8L1257.66 1297H1246.26L1233.96 1256.9L1221.86 1297H1210.46L1194.06 1244.8H1203.06L1216.66 1288.5L1229.66 1244.8H1238.66L1251.86 1288.5L1265.46 1244.8H1274.06ZM1330.29 1273.8H1293.29C1293.83 1278.93 1295.53 1283.03 1298.39 1286.1C1301.33 1289.1 1305.29 1290.6 1310.29 1290.6C1313.29 1290.6 1316.19 1290 1318.99 1288.8C1321.86 1287.53 1324.76 1285.7 1327.69 1283.3H1328.09V1292.1C1325.16 1294.23 1322.26 1295.8 1319.39 1296.8C1316.53 1297.73 1313.46 1298.2 1310.19 1298.2C1304.86 1298.2 1300.23 1297.03 1296.29 1294.7C1292.36 1292.37 1289.33 1289.13 1287.19 1285C1285.13 1280.8 1284.09 1276 1284.09 1270.6C1284.09 1265.47 1285.03 1260.87 1286.89 1256.8C1288.83 1252.67 1291.56 1249.43 1295.09 1247.1C1298.63 1244.77 1302.76 1243.6 1307.49 1243.6C1312.29 1243.6 1316.39 1244.8 1319.79 1247.2C1323.26 1249.53 1325.86 1252.77 1327.59 1256.9C1329.39 1261.03 1330.29 1265.7 1330.29 1270.9V1273.8ZM1307.59 1250.9C1303.46 1250.9 1300.16 1252.4 1297.69 1255.4C1295.23 1258.4 1293.76 1262.27 1293.29 1267H1321.19C1320.73 1262.13 1319.36 1258.23 1317.09 1255.3C1314.89 1252.37 1311.73 1250.9 1307.59 1250.9ZM1372.15 1243.6C1376.69 1243.6 1380.55 1244.8 1383.75 1247.2C1386.95 1249.6 1389.35 1252.87 1390.95 1257C1392.62 1261.13 1393.45 1265.8 1393.45 1271C1393.45 1276.2 1392.49 1280.87 1390.55 1285C1388.69 1289.07 1385.95 1292.27 1382.35 1294.6C1378.82 1296.93 1374.62 1298.1 1369.75 1298.1C1367.29 1298.1 1364.99 1297.83 1362.85 1297.3C1360.72 1296.77 1358.45 1296 1356.05 1295V1297H1347.25V1221.6H1356.05V1250.4C1360.39 1245.87 1365.75 1243.6 1372.15 1243.6ZM1368.85 1290.3C1373.65 1290.3 1377.35 1288.5 1379.95 1284.9C1382.62 1281.3 1383.95 1276.67 1383.95 1271C1383.95 1265.33 1382.92 1260.7 1380.85 1257.1C1378.85 1253.5 1375.69 1251.7 1371.35 1251.7C1368.29 1251.7 1365.52 1252.33 1363.05 1253.6C1360.65 1254.87 1358.32 1256.73 1356.05 1259.2V1288.3C1360.39 1289.63 1364.65 1290.3 1368.85 1290.3ZM1425.02 1298.2C1421.82 1298.2 1418.65 1297.73 1415.52 1296.8C1412.45 1295.8 1409.55 1294.4 1406.82 1292.6V1283.4C1412.88 1288.07 1418.88 1290.4 1424.82 1290.4C1428.28 1290.4 1431.08 1289.7 1433.22 1288.3C1435.35 1286.83 1436.42 1284.9 1436.42 1282.5C1436.42 1280.83 1435.88 1279.47 1434.82 1278.4C1433.82 1277.33 1432.55 1276.5 1431.02 1275.9C1429.48 1275.3 1427.28 1274.57 1424.42 1273.7C1420.88 1272.7 1417.95 1271.73 1415.62 1270.8C1413.35 1269.8 1411.42 1268.37 1409.82 1266.5C1408.22 1264.57 1407.42 1262.07 1407.42 1259C1407.42 1254.33 1409.18 1250.6 1412.72 1247.8C1416.25 1245 1420.88 1243.6 1426.62 1243.6C1432.35 1243.6 1437.55 1245.1 1442.22 1248.1V1257C1439.62 1255 1437.08 1253.57 1434.62 1252.7C1432.22 1251.83 1429.68 1251.4 1427.02 1251.4C1423.68 1251.4 1421.05 1252 1419.12 1253.2C1417.18 1254.4 1416.22 1256.07 1416.22 1258.2C1416.22 1259.73 1416.72 1261 1417.72 1262C1418.78 1263 1420.08 1263.8 1421.62 1264.4C1423.15 1265 1425.35 1265.73 1428.22 1266.6C1431.82 1267.67 1434.75 1268.7 1437.02 1269.7C1439.28 1270.63 1441.22 1272.1 1442.82 1274.1C1444.42 1276.03 1445.22 1278.57 1445.22 1281.7C1445.22 1284.9 1444.35 1287.77 1442.62 1290.3C1440.88 1292.77 1438.48 1294.7 1435.42 1296.1C1432.35 1297.5 1428.88 1298.2 1425.02 1298.2ZM1465.02 1233C1463.15 1233 1461.62 1232.4 1460.42 1231.2C1459.28 1230 1458.72 1228.47 1458.72 1226.6C1458.72 1224.73 1459.28 1223.2 1460.42 1222C1461.62 1220.8 1463.15 1220.2 1465.02 1220.2C1466.88 1220.2 1468.38 1220.8 1469.52 1222C1470.72 1223.2 1471.32 1224.73 1471.32 1226.6C1471.32 1228.47 1470.72 1230 1469.52 1231.2C1468.38 1232.4 1466.88 1233 1465.02 1233ZM1469.42 1244.8V1297H1460.62V1244.8H1469.42ZM1500.34 1244.8H1514.74V1252.4H1500.34V1282.3C1500.34 1284.77 1500.88 1286.77 1501.94 1288.3C1503.08 1289.77 1504.71 1290.5 1506.84 1290.5C1508.31 1290.5 1509.61 1290.37 1510.74 1290.1C1511.94 1289.77 1513.28 1289.27 1514.74 1288.6V1296.4C1513.21 1297.13 1511.74 1297.6 1510.34 1297.8C1508.94 1298.07 1507.24 1298.2 1505.24 1298.2C1500.98 1298.2 1497.61 1296.83 1495.14 1294.1C1492.74 1291.37 1491.54 1287.73 1491.54 1283.2V1252.4H1481.54V1244.8H1491.54V1230.8L1500.34 1226.2V1244.8ZM1572.28 1273.8H1535.28C1535.82 1278.93 1537.52 1283.03 1540.38 1286.1C1543.32 1289.1 1547.28 1290.6 1552.28 1290.6C1555.28 1290.6 1558.18 1290 1560.98 1288.8C1563.85 1287.53 1566.75 1285.7 1569.68 1283.3H1570.08V1292.1C1567.15 1294.23 1564.25 1295.8 1561.38 1296.8C1558.52 1297.73 1555.45 1298.2 1552.18 1298.2C1546.85 1298.2 1542.22 1297.03 1538.28 1294.7C1534.35 1292.37 1531.32 1289.13 1529.18 1285C1527.12 1280.8 1526.08 1276 1526.08 1270.6C1526.08 1265.47 1527.02 1260.87 1528.88 1256.8C1530.82 1252.67 1533.55 1249.43 1537.08 1247.1C1540.62 1244.77 1544.75 1243.6 1549.48 1243.6C1554.28 1243.6 1558.38 1244.8 1561.78 1247.2C1565.25 1249.53 1567.85 1252.77 1569.58 1256.9C1571.38 1261.03 1572.28 1265.7 1572.28 1270.9V1273.8ZM1549.58 1250.9C1545.45 1250.9 1542.15 1252.4 1539.68 1255.4C1537.22 1258.4 1535.75 1262.27 1535.28 1267H1563.18C1562.72 1262.13 1561.35 1258.23 1559.08 1255.3C1556.88 1252.37 1553.72 1250.9 1549.58 1250.9ZM1603.04 1298.2C1599.84 1298.2 1596.68 1297.73 1593.54 1296.8C1590.48 1295.8 1587.58 1294.4 1584.84 1292.6V1283.4C1590.91 1288.07 1596.91 1290.4 1602.84 1290.4C1606.31 1290.4 1609.11 1289.7 1611.24 1288.3C1613.38 1286.83 1614.44 1284.9 1614.44 1282.5C1614.44 1280.83 1613.91 1279.47 1612.84 1278.4C1611.84 1277.33 1610.58 1276.5 1609.04 1275.9C1607.51 1275.3 1605.31 1274.57 1602.44 1273.7C1598.91 1272.7 1595.98 1271.73 1593.64 1270.8C1591.38 1269.8 1589.44 1268.37 1587.84 1266.5C1586.24 1264.57 1585.44 1262.07 1585.44 1259C1585.44 1254.33 1587.21 1250.6 1590.74 1247.8C1594.28 1245 1598.91 1243.6 1604.64 1243.6C1610.38 1243.6 1615.58 1245.1 1620.24 1248.1V1257C1617.64 1255 1615.11 1253.57 1612.64 1252.7C1610.24 1251.83 1607.71 1251.4 1605.04 1251.4C1601.71 1251.4 1599.08 1252 1597.14 1253.2C1595.21 1254.4 1594.24 1256.07 1594.24 1258.2C1594.24 1259.73 1594.74 1261 1595.74 1262C1596.81 1263 1598.11 1263.8 1599.64 1264.4C1601.18 1265 1603.38 1265.73 1606.24 1266.6C1609.84 1267.67 1612.78 1268.7 1615.04 1269.7C1617.31 1270.63 1619.24 1272.1 1620.84 1274.1C1622.44 1276.03 1623.24 1278.57 1623.24 1281.7C1623.24 1284.9 1622.38 1287.77 1620.64 1290.3C1618.91 1292.77 1616.51 1294.7 1613.44 1296.1C1610.38 1297.5 1606.91 1298.2 1603.04 1298.2Z" fill="#280B45"/>
<rect x="76" y="630" width="600" height="600" rx="57" fill="#280B45"/>
<path d="M448.441 1015H299.941L270.941 1094H204.941L336.941 746H413.941L545.941 1094H477.441L448.441 1015ZM427.941 959L374.441 811L320.441 959H427.941Z" fill="white"/>
<line x1="351.054" y1="920.242" x2="304.054" y2="1046.24" stroke="#280B45" stroke-width="30"/>
</svg>
