<svg width="32" height="32" viewBox="0 0 32 32" fill="none" xmlns="http://www.w3.org/2000/svg">
<path d="M0 2C0 0.895431 0.895431 0 2 0H30C31.1046 0 32 0.895431 32 2V30C32 31.1046 31.1046 32 30 32H2C0.895431 32 0 31.1046 0 30V2Z" fill="#FF5B5B"/>
<path d="M14.972 22H10.76L10.508 19.138H7.178L5.9 22H4.154L9.464 10.57H13.73L14.972 22ZM7.772 17.824H10.382L9.968 12.928L7.772 17.824ZM21.1021 15.538L25.5481 10.552H27.5821L23.5501 14.926L26.2861 22H22.3621L20.7781 16.978L19.7161 22H15.8281L18.2581 10.57H22.1641L21.1021 15.538Z" fill="white"/>
</svg>
